<svg xmlns="http://www.w3.org/2000/svg" xmlns:xlink="http://www.w3.org/1999/xlink" width="45" zoomAndPan="magnify" viewBox="0 0 33.75 33.749999" height="45" preserveAspectRatio="xMidYMid meet" version="1.0"><defs><clipPath id="e2a8ded7af"><path d="M 1.273438 1.425781 L 32.773438 1.425781 L 32.773438 32.925781 L 1.273438 32.925781 Z M 1.273438 1.425781 " clip-rule="nonzero"/></clipPath><clipPath id="e0d1986c70"><path d="M 11 6.578125 L 22 6.578125 L 22 17 L 11 17 Z M 11 6.578125 " clip-rule="nonzero"/></clipPath><clipPath id="e09b9a980b"><path d="M 7.117188 16 L 26.617188 16 L 26.617188 26.828125 L 7.117188 26.828125 Z M 7.117188 16 " clip-rule="nonzero"/></clipPath></defs><g clip-path="url(#e2a8ded7af)"><path fill="#efeaff" d="M 17.023438 1.425781 C 16.507812 1.425781 15.996094 1.449219 15.480469 1.5 C 14.96875 1.550781 14.457031 1.628906 13.953125 1.726562 C 13.445312 1.828125 12.945312 1.953125 12.453125 2.101562 C 11.960938 2.253906 11.472656 2.425781 10.996094 2.625 C 10.519531 2.820312 10.054688 3.042969 9.601562 3.285156 C 9.144531 3.527344 8.703125 3.792969 8.273438 4.078125 C 7.847656 4.367188 7.433594 4.671875 7.035156 5 C 6.632812 5.328125 6.253906 5.671875 5.886719 6.039062 C 5.523438 6.402344 5.175781 6.785156 4.851562 7.183594 C 4.523438 7.582031 4.214844 7.996094 3.929688 8.425781 C 3.644531 8.855469 3.378906 9.296875 3.132812 9.75 C 2.890625 10.207031 2.671875 10.671875 2.472656 11.148438 C 2.277344 11.625 2.101562 12.109375 1.953125 12.601562 C 1.804688 13.097656 1.679688 13.597656 1.578125 14.101562 C 1.476562 14.609375 1.402344 15.117188 1.351562 15.632812 C 1.300781 16.144531 1.273438 16.660156 1.273438 17.175781 C 1.273438 17.691406 1.300781 18.207031 1.351562 18.71875 C 1.402344 19.230469 1.476562 19.742188 1.578125 20.246094 C 1.679688 20.753906 1.804688 21.253906 1.953125 21.746094 C 2.101562 22.242188 2.277344 22.726562 2.472656 23.203125 C 2.671875 23.679688 2.890625 24.144531 3.132812 24.597656 C 3.378906 25.054688 3.644531 25.496094 3.929688 25.925781 C 4.214844 26.355469 4.523438 26.769531 4.851562 27.167969 C 5.175781 27.566406 5.523438 27.945312 5.886719 28.3125 C 6.253906 28.675781 6.632812 29.023438 7.035156 29.351562 C 7.433594 29.675781 7.847656 29.984375 8.273438 30.269531 C 8.703125 30.558594 9.144531 30.820312 9.601562 31.066406 C 10.054688 31.308594 10.519531 31.527344 10.996094 31.726562 C 11.472656 31.921875 11.960938 32.097656 12.453125 32.246094 C 12.945312 32.398438 13.445312 32.523438 13.953125 32.621094 C 14.457031 32.722656 14.96875 32.796875 15.480469 32.847656 C 15.996094 32.898438 16.507812 32.925781 17.023438 32.925781 C 17.539062 32.925781 18.054688 32.898438 18.570312 32.847656 C 19.082031 32.796875 19.589844 32.722656 20.097656 32.621094 C 20.605469 32.523438 21.101562 32.398438 21.597656 32.246094 C 22.089844 32.097656 22.574219 31.921875 23.050781 31.726562 C 23.527344 31.527344 23.996094 31.308594 24.449219 31.066406 C 24.90625 30.820312 25.347656 30.558594 25.773438 30.269531 C 26.203125 29.984375 26.617188 29.675781 27.015625 29.351562 C 27.414062 29.023438 27.796875 28.675781 28.160156 28.3125 C 28.527344 27.945312 28.871094 27.566406 29.199219 27.167969 C 29.527344 26.769531 29.835938 26.355469 30.121094 25.925781 C 30.40625 25.496094 30.671875 25.054688 30.914062 24.597656 C 31.160156 24.144531 31.378906 23.679688 31.574219 23.203125 C 31.773438 22.726562 31.945312 22.242188 32.097656 21.746094 C 32.246094 21.253906 32.371094 20.753906 32.472656 20.246094 C 32.574219 19.742188 32.648438 19.230469 32.699219 18.71875 C 32.75 18.207031 32.773438 17.691406 32.773438 17.175781 C 32.773438 16.660156 32.75 16.144531 32.699219 15.632812 C 32.648438 15.117188 32.574219 14.609375 32.472656 14.101562 C 32.371094 13.597656 32.246094 13.097656 32.097656 12.601562 C 31.945312 12.109375 31.773438 11.625 31.574219 11.148438 C 31.378906 10.671875 31.15625 10.207031 30.914062 9.75 C 30.671875 9.296875 30.40625 8.855469 30.121094 8.425781 C 29.832031 7.996094 29.527344 7.582031 29.199219 7.183594 C 28.871094 6.785156 28.527344 6.402344 28.160156 6.039062 C 27.796875 5.675781 27.414062 5.328125 27.015625 5 C 26.617188 4.671875 26.203125 4.367188 25.773438 4.078125 C 25.347656 3.792969 24.902344 3.527344 24.449219 3.285156 C 23.996094 3.042969 23.527344 2.820312 23.050781 2.625 C 22.574219 2.425781 22.089844 2.253906 21.597656 2.105469 C 21.101562 1.953125 20.601562 1.828125 20.097656 1.726562 C 19.589844 1.628906 19.082031 1.550781 18.570312 1.5 C 18.054688 1.449219 17.539062 1.425781 17.023438 1.425781 Z M 17.023438 7.332031 C 17.398438 7.332031 17.769531 7.375 18.132812 7.460938 C 18.496094 7.546875 18.847656 7.671875 19.183594 7.839844 C 19.515625 8.003906 19.828125 8.207031 20.117188 8.449219 C 20.402344 8.6875 20.660156 8.957031 20.886719 9.253906 C 21.109375 9.554688 21.296875 9.875 21.449219 10.21875 C 21.601562 10.558594 21.710938 10.914062 21.777344 11.28125 C 21.84375 11.652344 21.871094 12.023438 21.851562 12.394531 C 21.835938 12.769531 21.773438 13.136719 21.671875 13.496094 C 21.566406 13.855469 21.421875 14.199219 21.242188 14.527344 C 21.058594 14.851562 20.839844 15.152344 20.585938 15.429688 C 20.332031 15.703125 20.050781 15.949219 19.742188 16.15625 C 19.433594 16.367188 19.101562 16.539062 18.753906 16.675781 C 18.402344 16.808594 18.042969 16.898438 17.671875 16.949219 C 17.300781 17 16.929688 17.007812 16.558594 16.96875 C 16.183594 16.933594 15.820312 16.855469 15.46875 16.734375 C 15.113281 16.613281 14.777344 16.453125 14.460938 16.253906 C 10.40625 13.683594 12.164062 7.378906 17.023438 7.332031 Z M 22.691406 27.019531 L 11.359375 27.019531 C 10.886719 27.019531 10.429688 26.925781 9.996094 26.746094 C 9.558594 26.5625 9.171875 26.304688 8.835938 25.96875 C 8.503906 25.636719 8.246094 25.25 8.0625 24.8125 C 7.882812 24.375 7.792969 23.917969 7.792969 23.445312 C 7.792969 20.417969 10.019531 17.804688 13.21875 16.628906 C 13.753906 17.078125 14.34375 17.421875 15 17.664062 C 15.652344 17.902344 16.328125 18.023438 17.023438 18.023438 C 17.722656 18.023438 18.398438 17.902344 19.050781 17.664062 C 19.703125 17.421875 20.296875 17.078125 20.828125 16.628906 C 24.027344 17.804688 26.257812 20.417969 26.257812 23.445312 C 26.257812 23.917969 26.167969 24.375 25.988281 24.8125 C 25.804688 25.25 25.546875 25.636719 25.214844 25.96875 C 24.878906 26.304688 24.492188 26.5625 24.054688 26.746094 C 23.617188 26.925781 23.164062 27.019531 22.691406 27.019531 Z M 22.691406 27.019531 " fill-opacity="1" fill-rule="nonzero"/></g><g clip-path="url(#e0d1986c70)"><path fill="#d4c8fa" d="M 14.167969 15.757812 C 17.433594 17.828125 21.929688 15.441406 21.898438 11.546875 C 21.898438 11.21875 21.867188 10.898438 21.800781 10.578125 C 21.734375 10.257812 21.640625 9.945312 21.511719 9.644531 C 21.386719 9.34375 21.230469 9.058594 21.046875 8.785156 C 20.863281 8.515625 20.652344 8.265625 20.417969 8.035156 C 20.183594 7.804688 19.929688 7.597656 19.652344 7.417969 C 19.378906 7.234375 19.085938 7.082031 18.78125 6.957031 C 18.472656 6.832031 18.160156 6.738281 17.832031 6.671875 C 17.507812 6.609375 17.179688 6.578125 16.847656 6.578125 C 11.765625 6.625 9.929688 13.113281 14.167969 15.757812 Z M 14.167969 15.757812 " fill-opacity="1" fill-rule="nonzero"/></g><g clip-path="url(#e09b9a980b)"><path fill="#d4c8fa" d="M 20.824219 16.140625 C 20.269531 16.601562 19.648438 16.957031 18.964844 17.203125 C 18.28125 17.449219 17.578125 17.574219 16.847656 17.574219 C 16.121094 17.574219 15.414062 17.449219 14.734375 17.203125 C 14.050781 16.957031 13.429688 16.601562 12.875 16.140625 C 9.527344 17.347656 7.199219 20.039062 7.199219 23.152344 C 7.199219 23.640625 7.292969 24.109375 7.484375 24.558594 C 7.671875 25.007812 7.941406 25.402344 8.292969 25.75 C 8.640625 26.09375 9.042969 26.359375 9.5 26.546875 C 9.957031 26.730469 10.433594 26.824219 10.929688 26.828125 L 22.769531 26.828125 C 23.265625 26.824219 23.738281 26.730469 24.195312 26.546875 C 24.652344 26.359375 25.054688 26.09375 25.40625 25.75 C 25.753906 25.402344 26.023438 25.007812 26.214844 24.558594 C 26.402344 24.109375 26.5 23.640625 26.5 23.152344 C 26.5 20.039062 24.171875 17.347656 20.824219 16.140625 Z M 20.824219 16.140625 " fill-opacity="1" fill-rule="nonzero"/></g></svg>